<svg width="16" height="12" viewBox="0 0 16 12" fill="none" xmlns="http://www.w3.org/2000/svg">
<path d="M13.2294 0.792725H13.9501C14.1625 0.792725 14.3345 0.964835 14.3345 1.17711V2.4097H12.845V1.17654C12.8453 0.964498 13.0173 0.792725 13.2294 0.792725Z" fill="#575B6D"/>
<path d="M10.2207 0.296387H5.77935C5.56618 0.296349 5.37041 0.413939 5.27029 0.602135L4.30835 2.40974H11.6918L10.7296 0.601347C10.6293 0.413564 10.4336 0.296312 10.2207 0.296387Z" fill="#DBD8DD"/>
<path d="M0.960968 1.85388H15.039C15.5698 1.85388 16 2.28412 16 2.81485V10.7427C16 11.2734 15.5698 11.7036 15.039 11.7036H0.960968C0.430238 11.7037 0 11.2734 0 10.7427V2.81485C0 2.28412 0.430238 1.85388 0.960968 1.85388Z" fill="#DBD8DD"/>
<path d="M0 4.16821H16V9.38949H0V4.16821Z" fill="#575B6D"/>
<path d="M8.00006 10.6987C10.165 10.6987 11.92 8.9437 11.92 6.77875C11.92 4.6138 10.165 2.85876 8.00006 2.85876C5.83512 2.85876 4.08008 4.6138 4.08008 6.77875C4.08008 8.9437 5.83512 10.6987 8.00006 10.6987Z" fill="#686D82"/>
<path d="M10.9588 6.77896C10.962 8.41697 9.63669 9.7474 7.99868 9.75055C6.36068 9.75373 5.03026 8.42845 5.02711 6.79044C5.02392 5.15243 6.3492 3.822 7.98721 3.81885C8.58986 3.81769 9.17852 4.00011 9.6749 4.3419C10.4776 4.8937 10.9576 5.80491 10.9588 6.77896Z" fill="#419BE9"/>
<path d="M10.1921 6.01211C10.1944 7.64439 8.8731 8.96952 7.24082 8.97189C6.6399 8.97275 6.05296 8.7904 5.5583 8.44918C4.63381 7.10301 4.97563 5.26229 6.32181 4.3378C7.33224 3.64389 8.66608 3.64531 9.67501 4.34148C10.0121 4.83336 10.1924 5.4158 10.1921 6.01211Z" fill="#69B0EE"/>
<path d="M7.61652 5.82185C7.9438 5.82185 8.20912 5.55654 8.20912 5.22926C8.20912 4.90197 7.9438 4.63666 7.61652 4.63666C7.28924 4.63666 7.02393 4.90197 7.02393 5.22926C7.02393 5.55654 7.28924 5.82185 7.61652 5.82185Z" fill="#EEEFEE"/>
<path d="M6.63872 6.6597C6.78463 6.6597 6.90292 6.54141 6.90292 6.39549C6.90292 6.24958 6.78463 6.13129 6.63872 6.13129C6.4928 6.13129 6.37451 6.24958 6.37451 6.39549C6.37451 6.54141 6.4928 6.6597 6.63872 6.6597Z" fill="#EEEFEE"/>
<path d="M2.04648 3.64116C2.32429 3.64116 2.5495 3.41596 2.5495 3.13815C2.5495 2.86034 2.32429 2.63513 2.04648 2.63513C1.76867 2.63513 1.54346 2.86034 1.54346 3.13815C1.54346 3.41596 1.76867 3.64116 2.04648 3.64116Z" fill="#EF5261"/>
<path d="M12.2248 7.08333C12.2259 7.91242 11.9627 8.72029 11.4736 9.38968H10.9233C12.2528 7.90304 12.2528 5.65485 10.9233 4.16821C11.7527 4.91012 12.2261 5.97057 12.2248 7.08333Z" fill="#464956"/>
<path d="M11.4731 9.38969C10.2004 11.1397 7.74998 11.5267 5.99993 10.254C5.77364 10.0894 5.5656 9.90103 5.37939 9.6921C6.9858 11.1398 9.46163 11.0111 10.9093 9.40472C10.9138 9.3997 10.9183 9.39467 10.9228 9.38965H11.4731V9.38969Z" fill="#BBBBCD"/>
</svg>
